<svg width="15" height="14" viewBox="0 0 15 14" fill="none" xmlns="http://www.w3.org/2000/svg">
<path d="M9.66569 3.89013L13.5552 4.43869C13.8773 4.48268 14.148 4.70003 14.2508 4.9976C14.3537 5.29776 14.2698 5.6238 14.037 5.84633L11.2166 8.49082L11.8825 12.2842C11.9366 12.5947 11.804 12.9104 11.5333 13.0941C11.2653 13.2778 10.9108 13.3011 10.6212 13.1536L7.14577 11.3811L3.6731 13.1536C3.38078 13.3011 3.02621 13.2778 2.75824 13.0941C2.49028 12.9104 2.35495 12.5947 2.41179 12.2842L3.07763 8.49082L0.25673 5.84633C0.0236848 5.6238 -0.0591397 5.29776 0.0431728 4.9976C0.145215 4.70003 0.415071 4.48268 0.739602 4.43869L4.62585 3.89013L6.36896 0.465998C6.51241 0.180951 6.81556 0 7.14577 0C7.4787 0 7.78184 0.180951 7.9253 0.465998L9.66569 3.89013Z" fill="#0065FC"/>
</svg>
