<svg width="15" height="14" viewBox="0 0 15 14" fill="none" xmlns="http://www.w3.org/2000/svg">
<path d="M10.3714 3.89013L14.2609 4.43869C14.583 4.48268 14.8537 4.70003 14.9566 4.9976C15.0594 5.29776 14.9755 5.6238 14.7427 5.84633L11.9224 8.49082L12.5882 12.2842C12.6423 12.5947 12.5097 12.9104 12.2391 13.0941C11.9711 13.2778 11.6165 13.3011 11.3269 13.1536L7.85152 11.3811L4.37885 13.1536C4.08653 13.3011 3.73195 13.2778 3.46399 13.0941C3.19603 12.9104 3.0607 12.5947 3.11754 12.2842L3.78338 8.49082L0.962479 5.84633C0.729434 5.6238 0.64661 5.29776 0.748922 4.9976C0.850964 4.70003 1.12082 4.48268 1.44535 4.43869L5.3316 3.89013L7.07471 0.465998C7.21816 0.180951 7.52131 0 7.85152 0C8.18444 0 8.48759 0.180951 8.63105 0.465998L10.3714 3.89013Z" fill="#F2F2F2"/>
</svg>
